<?xml version="1.0" encoding="UTF-8"?><svg xmlns="http://www.w3.org/2000/svg" xmlns:xlink="http://www.w3.org/1999/xlink" contentScriptType="text/ecmascript" width="375pt" zoomAndPan="magnify" contentStyleType="text/css" viewBox="0 0 375 374.999991" height="374.999991pt" preserveAspectRatio="xMidYMid meet" version="1.2"><defs><g/><clipPath xml:id="clip1" id="clip1"><path d="M 77 138.949219 L 145.929688 138.949219 L 145.929688 188 L 77 188 Z M 77 138.949219 "/></clipPath><clipPath xml:id="clip2" id="clip2"><path d="M 59.894531 155 L 128 155 L 128 204 L 59.894531 204 Z M 59.894531 155 "/></clipPath><clipPath xml:id="clip3" id="clip3"><path d="M 77 171 L 145.929688 171 L 145.929688 220 L 77 220 Z M 77 171 "/></clipPath><clipPath xml:id="clip4" id="clip4"><path d="M 59.933594 188.207031 L 127.984375 188.207031 L 127.984375 236.269531 L 59.933594 236.269531 Z M 59.933594 188.207031 "/></clipPath></defs><g xml:id="surface1" id="surface1"><rect x="0" width="375" y="0" height="374.999991" style="fill:rgb(100%,100%,100%);fill-opacity:1;stroke:none;"/><rect x="0" width="375" y="0" height="374.999991" style="fill:rgb(100%,100%,100%);fill-opacity:1;stroke:none;"/><rect x="0" width="375" y="0" height="374.999991" style="fill:rgb(96.859741%,96.469116%,96.859741%);fill-opacity:1;stroke:none;"/><g clip-rule="nonzero" clip-path="url(#clip1)"><path style=" stroke:none;fill-rule:nonzero;fill:rgb(100%,75.289917%,49.798584%);fill-opacity:1;" d="M 121.730469 171.84375 C 119.417969 171.84375 118.636719 171.519531 111.410156 167.304688 C 109.390625 166.136719 106.917969 164.710938 103.855469 162.960938 C 106.917969 161.246094 109.359375 159.820312 111.378906 158.652344 C 118.703125 154.441406 119.484375 154.082031 121.730469 154.082031 C 126.648438 154.082031 130.621094 158.070312 130.652344 162.996094 C 130.621094 167.886719 126.617188 171.84375 121.730469 171.84375 Z M 145.890625 162.996094 C 145.890625 162.996094 145.890625 162.929688 145.890625 162.898438 C 145.855469 149.675781 135.015625 138.949219 121.730469 138.949219 C 115.023438 138.949219 111.574219 140.925781 101.414062 146.824219 C 96.597656 149.609375 89.988281 153.433594 80.445312 158.585938 C 78.851562 159.460938 77.839844 161.113281 77.839844 162.960938 C 77.839844 164.777344 78.851562 166.460938 80.445312 167.335938 C 90.117188 172.554688 96.789062 176.410156 101.644531 179.230469 C 111.996094 185.226562 115.121094 187.007812 121.761719 187.007812 C 135.046875 187.007812 145.890625 176.21875 145.890625 162.996094 "/></g><g clip-rule="nonzero" clip-path="url(#clip2)"><path style=" stroke:none;fill-rule:nonzero;fill:rgb(92.939758%,87.449646%,83.918762%);fill-opacity:1;" d="M 84.09375 170.511719 C 86.40625 170.511719 87.1875 170.835938 94.445312 175.050781 C 96.464844 176.21875 98.941406 177.640625 102 179.359375 C 98.941406 181.078125 96.5 182.472656 94.480469 183.671875 C 87.152344 187.882812 86.371094 188.238281 84.125 188.238281 C 79.207031 188.238281 75.238281 184.253906 75.238281 179.328125 C 75.203125 174.464844 79.207031 170.511719 84.09375 170.511719 Z M 104.410156 195.53125 C 109.226562 192.746094 115.835938 188.921875 125.378906 183.734375 C 126.972656 182.859375 127.984375 181.207031 127.984375 179.359375 C 127.984375 177.546875 126.972656 175.859375 125.378906 174.984375 C 115.707031 169.765625 109.066406 165.910156 104.214844 163.09375 C 93.859375 157.097656 90.734375 155.3125 84.09375 155.3125 C 70.777344 155.3125 59.933594 166.105469 59.933594 179.328125 L 59.933594 179.394531 C 59.96875 192.613281 70.808594 203.34375 84.09375 203.34375 C 90.800781 203.40625 94.21875 201.429688 104.410156 195.53125 "/></g><g clip-rule="nonzero" clip-path="url(#clip3)"><path style=" stroke:none;fill-rule:nonzero;fill:rgb(18.818665%,21.569824%,24.708557%);fill-opacity:1;" d="M 121.730469 204.667969 C 119.417969 204.667969 118.636719 204.34375 111.410156 200.132812 C 109.390625 198.96875 106.917969 197.542969 103.855469 195.789062 C 106.917969 194.074219 109.359375 192.648438 111.378906 191.480469 C 118.703125 187.265625 119.484375 186.910156 121.730469 186.910156 C 126.648438 186.910156 130.621094 190.898438 130.652344 195.824219 C 130.621094 200.75 126.617188 204.667969 121.730469 204.667969 Z M 145.890625 195.824219 C 145.890625 195.824219 145.890625 195.757812 145.890625 195.726562 C 145.855469 182.503906 135.015625 171.777344 121.730469 171.777344 C 115.023438 171.777344 111.574219 173.753906 101.414062 179.652344 C 96.597656 182.4375 89.988281 186.261719 80.445312 191.414062 C 78.851562 192.289062 77.839844 193.945312 77.839844 195.789062 C 77.839844 197.605469 78.851562 199.289062 80.445312 200.164062 C 90.117188 205.382812 96.789062 209.238281 101.644531 212.058594 C 111.996094 218.054688 115.121094 219.835938 121.761719 219.835938 C 135.046875 219.871094 145.890625 209.078125 145.890625 195.824219 "/></g><g clip-rule="nonzero" clip-path="url(#clip4)"><path style=" stroke:none;fill-rule:nonzero;fill:rgb(100%,65.879822%,20.779419%);fill-opacity:1;" d="M 84.09375 203.40625 C 86.40625 203.40625 87.1875 203.730469 94.445312 207.945312 C 96.464844 209.109375 98.941406 210.535156 102 212.253906 C 98.972656 213.972656 96.5 215.363281 94.480469 216.53125 C 87.152344 220.746094 86.371094 221.101562 84.125 221.101562 C 79.207031 221.101562 75.238281 217.113281 75.238281 212.1875 C 75.203125 207.359375 79.207031 203.40625 84.09375 203.40625 Z M 104.410156 228.425781 C 109.226562 225.636719 115.835938 221.8125 125.378906 216.628906 C 126.972656 215.753906 127.984375 214.101562 127.984375 212.253906 C 127.984375 210.4375 126.972656 208.753906 125.378906 207.878906 C 115.707031 202.628906 109.035156 198.804688 104.179688 195.984375 C 93.828125 189.992188 90.703125 188.207031 84.0625 188.207031 C 70.777344 188.238281 59.933594 199.03125 59.933594 212.253906 L 59.933594 212.320312 C 59.96875 225.539062 70.808594 236.265625 84.09375 236.265625 C 90.800781 236.300781 94.21875 234.324219 104.410156 228.425781 "/></g><g style="fill:rgb(18.818665%,21.569824%,24.708557%);fill-opacity:1;"><g transform="translate(169.108515, 177.606201)"><path style="stroke:none;" d="M 14.960938 -23.324219 L 23.28125 -23.324219 L 23.28125 -29.152344 L 0.214844 -29.152344 L 0.214844 -23.324219 L 8.53125 -23.324219 L 8.53125 0 L 14.960938 0 Z M 14.960938 -23.324219 "/></g></g><g style="fill:rgb(18.818665%,21.569824%,24.708557%);fill-opacity:1;"><g transform="translate(199.033921, 177.606201)"><path style="stroke:none;" d="M 18.605469 -29.152344 L 18.605469 -17.535156 L 9.003906 -17.535156 L 9.003906 -29.152344 L 2.574219 -29.152344 L 2.574219 0 L 9.003906 0 L 9.003906 -11.703125 L 18.605469 -11.703125 L 18.605469 0 L 25.464844 0 L 25.464844 -29.152344 Z M 18.605469 -29.152344 "/></g></g><g style="fill:rgb(18.818665%,21.569824%,24.708557%);fill-opacity:1;"><g transform="translate(233.503889, 177.606201)"><path style="stroke:none;" d="M 19.464844 -5.832031 L 9.003906 -5.832031 L 9.003906 -11.703125 L 19.035156 -11.703125 L 19.035156 -17.535156 L 9.003906 -17.535156 L 9.003906 -23.324219 L 19.464844 -23.324219 L 19.464844 -29.152344 L 2.574219 -29.152344 L 2.574219 0 L 19.464844 0 Z M 19.464844 -5.832031 "/></g></g><g style="fill:rgb(18.818665%,21.569824%,24.708557%);fill-opacity:1;"><g transform="translate(169.108515, 227.075089)"><path style="stroke:none;" d="M 2.574219 0 L 19.464844 0 L 19.464844 -5.832031 L 9.003906 -5.832031 L 9.003906 -29.152344 L 2.574219 -29.152344 Z M 2.574219 0 "/></g></g><g style="fill:rgb(18.818665%,21.569824%,24.708557%);fill-opacity:1;"><g transform="translate(196.504417, 227.075089)"><path style="stroke:none;" d="M 25.082031 -14.621094 C 25.082031 -10.117188 21.007812 -6.003906 16.507812 -6.003906 C 12.003906 -6.003906 7.929688 -10.117188 7.929688 -14.621094 C 7.929688 -19.121094 12.003906 -23.195312 16.507812 -23.195312 C 21.007812 -23.195312 25.082031 -19.121094 25.082031 -14.621094 Z M 31.511719 -14.578125 C 31.511719 -22.636719 24.566406 -29.582031 16.507812 -29.582031 C 8.445312 -29.582031 1.5 -22.636719 1.5 -14.578125 C 1.5 -6.515625 8.445312 0.429688 16.507812 0.429688 C 24.566406 0.429688 31.511719 -6.515625 31.511719 -14.578125 Z M 31.511719 -14.578125 "/></g></g><g style="fill:rgb(18.818665%,21.569824%,24.708557%);fill-opacity:1;"><g transform="translate(235.947643, 227.075089)"><path style="stroke:none;" d="M 25.082031 -14.621094 C 25.082031 -10.117188 21.007812 -6.003906 16.507812 -6.003906 C 12.003906 -6.003906 7.929688 -10.117188 7.929688 -14.621094 C 7.929688 -19.121094 12.003906 -23.195312 16.507812 -23.195312 C 21.007812 -23.195312 25.082031 -19.121094 25.082031 -14.621094 Z M 31.511719 -14.578125 C 31.511719 -22.636719 24.566406 -29.582031 16.507812 -29.582031 C 8.445312 -29.582031 1.5 -22.636719 1.5 -14.578125 C 1.5 -6.515625 8.445312 0.429688 16.507812 0.429688 C 24.566406 0.429688 31.511719 -6.515625 31.511719 -14.578125 Z M 31.511719 -14.578125 "/></g></g><g style="fill:rgb(18.818665%,21.569824%,24.708557%);fill-opacity:1;"><g transform="translate(275.390865, 227.075089)"><path style="stroke:none;" d="M 9.003906 -10.417969 L 13.503906 -10.417969 C 18.222656 -10.417969 22.421875 -13.890625 22.421875 -19.808594 C 22.421875 -25.339844 18.222656 -29.152344 13.503906 -29.152344 L 2.574219 -29.152344 L 2.574219 0 L 9.003906 0 Z M 12.433594 -24.09375 C 14.320312 -24.09375 16.292969 -22.464844 16.292969 -19.808594 C 16.292969 -17.019531 14.320312 -15.476562 12.433594 -15.476562 L 9.003906 -15.476562 L 9.003906 -24.09375 Z M 12.433594 -24.09375 "/></g></g></g></svg>